<?xml version="1.0" standalone="no"?>
<!DOCTYPE svg PUBLIC "-//W3C//DTD SVG 20010904//EN"
 "http://www.w3.org/TR/2001/REC-SVG-20010904/DTD/svg10.dtd">
<svg version="1.0" xmlns="http://www.w3.org/2000/svg"
 width="500.000000pt" height="500.000000pt" viewBox="0 0 500.000000 500.000000"
 preserveAspectRatio="xMidYMid meet">
<metadata>
Created by potrace 1.14, written by Peter Selinger 2001-2017
</metadata>
<g transform="translate(0.000000,500.000000) scale(0.100000,-0.100000)"
fill="#000000" stroke="none">
<path d="M1867 4342 c-21 -4 -20 -29 12 -212 36 -207 26 -152 111 -655 39
-231 80 -469 90 -529 11 -60 20 -115 20 -122 0 -6 -44 -37 -97 -69 -54 -31
-122 -71 -150 -88 l-53 -31 -1 -151 c0 -82 -1 -170 -2 -194 l-2 -45 -156 -90
c-347 -203 -385 -227 -402 -255 -14 -24 -17 -57 -17 -194 0 -94 5 -178 11
-196 14 -41 28 -50 449 -291 195 -112 419 -240 497 -286 175 -101 233 -124
318 -124 111 0 64 -24 850 432 198 115 370 219 383 231 33 30 37 59 36 236 -1
137 -4 163 -20 191 -15 26 -78 67 -284 187 -146 84 -271 157 -278 161 -9 6
-13 56 -14 198 l-1 190 -61 36 c-34 20 -100 59 -148 88 -49 28 -88 56 -88 63
0 7 18 118 40 247 76 448 152 895 157 925 2 17 10 61 18 98 24 123 12 175 -45
183 -70 10 -153 18 -192 19 -27 0 -48 2 -48 5 0 3 -30 5 -68 6 -69 1 -279 11
-392 19 -64 5 -217 12 -375 18 -44 2 -88 2 -98 -1z"/>
<path d="M3199 2312 c5 -10 36 -33 68 -51 32 -17 67 -37 77 -44 77 -48 126
-77 130 -77 3 0 49 -26 103 -58 54 -33 206 -121 338 -197 367 -211 403 -234
431 -271 34 -43 37 -102 8 -141 -29 -40 -109 -90 -694 -430 -289 -167 -614
-357 -724 -420 -263 -153 -289 -163 -437 -164 -136 0 -186 15 -334 102 -50 28
-106 61 -125 71 -19 11 -118 69 -220 128 -270 157 -550 320 -588 342 -18 10
-102 58 -185 107 -84 49 -168 97 -187 107 -98 54 -180 108 -210 139 -30 31
-35 43 -35 83 0 31 7 56 20 75 17 23 171 122 335 215 19 10 63 36 97 56 34 20
66 36 71 36 6 0 12 4 14 8 3 8 132 87 206 127 21 11 51 30 69 43 17 12 34 22
37 22 4 0 24 11 45 24 21 14 42 22 45 19 3 -4 6 -1 6 5 0 7 5 12 11 12 6 0 27
12 46 28 20 15 38 26 40 25 7 -5 80 31 95 48 35 36 -23 34 -92 -4 -108 -59
-148 -83 -176 -104 -17 -13 -36 -23 -42 -23 -7 0 -12 -4 -12 -8 0 -4 -16 -14
-35 -21 -19 -7 -40 -18 -47 -25 -18 -17 -303 -187 -508 -304 -241 -136 -296
-208 -244 -318 27 -57 32 -60 669 -429 94 -54 233 -135 310 -180 779 -453 762
-445 945 -440 154 4 168 10 533 224 114 67 222 130 240 140 17 10 169 98 337
195 168 98 337 196 375 219 39 22 90 52 115 67 25 15 82 48 127 74 151 87 198
168 153 261 -28 58 -61 83 -290 213 -72 40 -430 248 -565 327 -248 146 -320
185 -338 185 -14 0 -16 -4 -8 -18z"/>
</g>
</svg>
